<svg width="308" height="121" viewBox="-24 -24 316 121" fill="none" xmlns="http://www.w3.org/2000/svg" role="img" aria-label="Grow (Meshulam) logo">
<rect x="-24" y="-24" width="316" height="121" rx="20" fill="#2A1A5E"></rect>
<path d="M255.399 10.6923L242.112 55.5294C241.997 55.9174 241.453 55.9287 241.322 55.5475L226.398 12.1112L225.94 10.7983L225.897 10.6765C225.843 10.5253 225.701 10.4261 225.54 10.4261H216.42C216.255 10.4261 216.111 10.5321 216.059 10.69L201.628 55.7347C201.504 56.125 200.949 56.1182 200.834 55.7234L187.678 10.6968C187.631 10.5366 187.484 10.4238 187.315 10.4238H175.456C175.246 10.4238 175.077 10.593 175.077 10.8028C175.077 10.8434 175.084 10.8818 175.095 10.9201L192.948 65.2702C195.576 73.1453 206.745 73.0619 209.26 65.1529L220.853 28.7052L223.041 34.6832L234.28 65.3875C237.032 73.1138 248.018 72.9423 250.528 65.1348L267.982 10.9201C267.993 10.8818 268 10.8434 268 10.8051C268 10.5953 267.831 10.4261 267.621 10.4261H255.76C255.593 10.4261 255.444 10.5366 255.397 10.6968" fill="white"></path>
<path d="M151.641 1.90998C150.137 1.43626 148.566 1.1069 146.949 0.937714C146.099 0.845224 145.232 0.797852 144.357 0.797852C143.482 0.797852 142.656 0.842968 141.824 0.930946C140.204 1.09562 138.636 1.42046 137.129 1.88968C127.425 4.908 120.389 13.8592 120.389 24.5767C120.389 25.5715 120.45 26.5506 120.567 27.5116C121.69 36.6929 128.007 44.2499 136.491 47.1848C136.771 47.284 137.055 47.3765 137.341 47.46C139.561 48.139 141.916 48.5022 144.357 48.5022C146.798 48.5022 149.115 48.1435 151.319 47.4758C151.625 47.3856 151.928 47.2886 152.225 47.1825C160.471 44.3289 166.67 37.1102 168.041 28.2786C168.231 27.0717 168.328 25.8332 168.328 24.5722C168.328 13.875 161.319 4.93733 151.641 1.90322M158.483 27.2318C157.24 33.9001 151.391 38.951 144.357 38.951C137.323 38.951 131.476 33.9001 130.233 27.2318C130.071 26.3746 129.987 25.4858 129.987 24.5812C129.987 16.6429 136.419 10.2115 144.355 10.2115C152.291 10.2115 158.725 16.6429 158.725 24.5812C158.725 25.4858 158.641 26.3746 158.479 27.2318" fill="#6E39EE"></path>
<path d="M167.911 61.2849C164.153 56.913 159.192 53.5992 153.537 51.8261C151.567 51.2058 149.512 50.7749 147.394 50.5561C146.282 50.4343 145.145 50.3711 144.001 50.3711C142.858 50.3711 141.777 50.432 140.688 50.547C138.565 50.7636 136.514 51.1877 134.538 51.8036C128.851 53.5721 123.866 56.895 120.094 61.2849C117.978 63.7437 116.245 66.5365 114.982 69.5796C114.707 70.2428 115.205 70.9737 115.923 70.9737H125.454C125.808 70.9737 126.133 70.7865 126.32 70.4842C129.142 65.9612 133.654 62.6 138.973 61.2849C140.584 60.8856 142.267 60.6735 144.001 60.6735C145.736 60.6735 147.421 60.8856 149.032 61.2849C154.351 62.6 158.863 65.9612 161.687 70.4842C161.874 70.7842 162.199 70.9715 162.553 70.9715H172.082C172.802 70.9715 173.298 70.2406 173.023 69.5774C171.76 66.5342 170.027 63.7415 167.911 61.2826" fill="white"></path>
<path d="M113.439 9.02073C111.9 9.00945 98.7104 9.39069 90.454 17.629V10.9202C90.454 10.6449 90.2307 10.4216 89.9555 10.4216H78.8657C78.5905 10.4216 78.3672 10.6449 78.3672 10.9202V38.2114C78.3672 38.7076 78.3785 39.1859 78.401 39.6461C78.3807 40.0702 78.3672 40.501 78.3672 40.9454V70.5173C78.3672 70.7925 78.5905 71.0159 78.8657 71.0159H89.9555C90.2307 71.0159 90.454 70.7925 90.454 70.5173V44.0991C90.454 28.0172 102.16 20.0247 113.43 20.7241C113.506 20.7286 113.57 20.6699 113.57 20.5932V9.15383C113.57 9.08164 113.513 9.02073 113.439 9.02073Z" fill="white"></path>
<path d="M31.9833 72.4034C15.7864 70.9461 2.61675 58.5345 0.406022 42.4232C-2.80179 19.0527 13.3659 0.787109 35.8972 0.787109C46.8065 0.787109 56.6217 5.48378 62.5884 12.5423C62.8816 12.8897 62.8456 13.4108 62.5027 13.7108L55.0606 20.2596C54.7155 20.5641 54.1876 20.528 53.8853 20.1806C49.7504 15.4366 44.0025 12.2513 36.1296 12.2513C23.1607 12.2513 13.2012 22.441 13.2012 36.5693C13.2012 50.6977 23.1607 60.8873 36.1296 60.8873C48.2886 60.8873 57.0886 53.0122 57.8985 40.7381H39.8675C39.096 40.7381 38.7373 39.7794 39.3216 39.2741L48.6112 31.2139C48.7623 31.0831 48.9563 31.0087 49.1571 31.0087H68.4265C69.2296 31.0087 69.9063 31.6155 69.9853 32.4141C72.5096 57.7494 55.3719 74.5059 31.9856 72.4034" fill="white"></path>
</svg>
